<svg width="21" height="19" viewBox="0 0 21 19" fill="none" xmlns="http://www.w3.org/2000/svg">
<path d="M10.7471 18.9688C5.22407 18.9688 0.74707 14.8691 0.74707 9.81165C0.74707 4.75418 5.22407 0.654541 10.7471 0.654541C16.2701 0.654541 20.7471 4.75418 20.7471 9.81165C20.7471 14.8691 16.2701 18.9688 10.7471 18.9688ZM10.7471 17.1373C12.8688 17.1373 14.9036 16.3655 16.4039 14.9917C17.9042 13.6179 18.7471 11.7545 18.7471 9.81165C18.7471 7.86875 17.9042 6.00544 16.4039 4.63161C14.9036 3.25777 12.8688 2.48596 10.7471 2.48596C8.62534 2.48596 6.59051 3.25777 5.09022 4.63161C3.58993 6.00544 2.74707 7.86875 2.74707 9.81165C2.74707 11.7545 3.58993 13.6179 5.09022 14.9917C6.59051 16.3655 8.62534 17.1373 10.7471 17.1373ZM9.74707 5.23309H11.7471V7.06451H9.74707V5.23309ZM9.74707 8.89594H11.7471V14.3902H9.74707V8.89594Z" fill="#D67E34"/>
</svg>
